<?xml version="1.0" encoding="UTF-8" standalone="no"?>
<svg
   xmlns:dc="http://purl.org/dc/elements/1.1/"
   xmlns:cc="http://creativecommons.org/ns#"
   xmlns:rdf="http://www.w3.org/1999/02/22-rdf-syntax-ns#"
   xmlns:svg="http://www.w3.org/2000/svg"
   xmlns="http://www.w3.org/2000/svg"
   xmlns:sodipodi="http://sodipodi.sourceforge.net/DTD/sodipodi-0.dtd"
   xmlns:inkscape="http://www.inkscape.org/namespaces/inkscape"
   inkscape:export-ydpi="135"
   inkscape:export-xdpi="135"
   inkscape:export-filename="/Users/rafaelcamargo/git/rafacamargo123.github.io/touch-icon-iphone.png"
   inkscape:version="1.0 (4035a4f, 2020-05-01)"
   sodipodi:docname="iconfinder_25_2959855.svg"
   id="svg840"
   xml:space="preserve"
   width="128"
   viewBox="0 0 20078.933 20080"
   version="1.0"
   style="clip-rule:evenodd;fill-rule:evenodd;image-rendering:optimizeQuality;shape-rendering:geometricPrecision;text-rendering:geometricPrecision"
   height="128"><metadata
     id="metadata844"><rdf:RDF><cc:Work
         rdf:about=""><dc:format>image/svg+xml</dc:format><dc:type
           rdf:resource="http://purl.org/dc/dcmitype/StillImage" /><dc:title></dc:title></cc:Work></rdf:RDF></metadata><sodipodi:namedview
     inkscape:current-layer="Layer_x0020_1"
     inkscape:window-maximized="0"
     inkscape:window-y="23"
     inkscape:window-x="0"
     inkscape:cy="67.025044"
     inkscape:cx="64.980964"
     inkscape:zoom="3.2744031"
     showgrid="false"
     id="namedview842"
     inkscape:window-height="764"
     inkscape:window-width="1270"
     inkscape:pageshadow="2"
     inkscape:pageopacity="0"
     guidetolerance="10"
     gridtolerance="10"
     objecttolerance="10"
     borderopacity="1"
     bordercolor="#666666"
     pagecolor="#ffffff" /><defs
     id="defs835"><style
       id="style833"
       type="text/css">
   <![CDATA[
    .fil0 {fill:#E6C131}
   ]]>
  </style></defs><g
     id="Layer_x0020_1"><path
       inkscape:export-ydpi="135"
       inkscape:export-xdpi="135"
       style="fill:#00b0f1;fill-opacity:1;stroke-width:0.780494"
       id="path837"
       d="m 5781.0894,2203.8368 h 8516.7546 c 688.396,0 1251.132,563.5169 1251.132,1251.1324 V 16624.25 c 0,688.396 -562.736,1251.913 -1251.132,1251.913 H 5781.0894 c -687.6155,0 -1251.1324,-563.517 -1251.1324,-1251.913 V 3454.9692 c 0,-687.6155 563.5169,-1251.1324 1251.1324,-1251.1324 z m 1181.6685,8282.6062 c 582.2487,0 1054.4478,-472.199 1054.4478,-1054.4481 0,-583.0293 -472.1991,-1055.2283 -1054.4478,-1055.2283 -583.0293,0 -1055.2284,472.199 -1055.2284,1055.2283 0,582.2491 472.1991,1054.4481 1055.2284,1054.4481 z m 0,5816.244 c 582.2487,0 1054.4478,-472.199 1054.4478,-1055.229 0,-583.029 -472.1991,-1055.228 -1054.4478,-1055.228 -583.0293,0 -1055.2284,472.199 -1055.2284,1055.228 0,583.03 472.1991,1055.229 1055.2284,1055.229 z m 6154.1981,0 c 582.249,0 1055.228,-472.199 1055.228,-1055.229 0,-583.029 -472.979,-1055.228 -1055.228,-1055.228 -583.029,0 -1055.228,472.199 -1055.228,1055.228 0,583.03 472.199,1055.229 1055.228,1055.229 z m -3077.489,0 c 583.029,0 1055.228,-472.199 1055.228,-1055.229 0,-583.029 -472.199,-1055.228 -1055.228,-1055.228 -582.2492,0 -1054.4483,472.199 -1054.4483,1055.228 0,583.03 472.1991,1055.229 1054.4483,1055.229 z M 6962.7579,13394.565 c 582.2487,0 1054.4478,-472.199 1054.4478,-1055.229 0,-582.248 -472.1991,-1054.448 -1054.4478,-1054.448 -583.0293,0 -1055.2284,472.2 -1055.2284,1054.448 0,583.03 472.1991,1055.229 1055.2284,1055.229 z m 6154.1981,0 c 582.249,0 1055.228,-472.199 1055.228,-1055.229 0,-582.248 -472.979,-1054.448 -1055.228,-1054.448 -583.029,0 -1055.228,472.2 -1055.228,1054.448 0,583.03 472.199,1055.229 1055.228,1055.229 z m -3077.489,0 c 583.029,0 1055.228,-472.199 1055.228,-1055.229 0,-582.248 -472.199,-1054.448 -1055.228,-1054.448 -582.2492,0 -1054.4483,472.2 -1054.4483,1054.448 0,583.03 472.1991,1055.229 1054.4483,1055.229 z m 3077.489,-2908.122 c 582.249,0 1055.228,-472.199 1055.228,-1054.4481 0,-583.0293 -472.979,-1055.2283 -1055.228,-1055.2283 -583.029,0 -1055.228,472.199 -1055.228,1055.2283 0,582.2491 472.199,1054.4481 1055.228,1054.4481 z m -3077.489,0 c 583.029,0 1055.228,-472.199 1055.228,-1054.4481 0,-583.0293 -472.199,-1055.2283 -1055.228,-1055.2283 -582.2492,0 -1054.4483,472.199 -1054.4483,1055.2283 0,582.2491 472.1991,1054.4481 1054.4483,1054.4481 z M 5907.5295,3640.7269 H 14172.184 V 6762.7043 H 5907.5295 Z"
       class="fil0" /></g></svg>
