<?xml version="1.0" encoding="UTF-8" standalone="no"?>
<svg
   xmlns:dc="http://purl.org/dc/elements/1.1/"
   xmlns:cc="http://creativecommons.org/ns#"
   xmlns:rdf="http://www.w3.org/1999/02/22-rdf-syntax-ns#"
   xmlns:svg="http://www.w3.org/2000/svg"
   xmlns="http://www.w3.org/2000/svg"
   xmlns:sodipodi="http://sodipodi.sourceforge.net/DTD/sodipodi-0.dtd"
   xmlns:inkscape="http://www.inkscape.org/namespaces/inkscape"
   inkscape:version="1.0 (4035a4f, 2020-05-01)"
   sodipodi:docname="iconfinder_25_2959855.svg"
   id="svg840"
   xml:space="preserve"
   width="90px"
   viewBox="0 0 14118 20080"
   version="1.0"
   style="shape-rendering:geometricPrecision; text-rendering:geometricPrecision; image-rendering:optimizeQuality; fill-rule:evenodd; clip-rule:evenodd"
   height="128px"><metadata
     id="metadata844"><rdf:RDF><cc:Work
         rdf:about=""><dc:format>image/svg+xml</dc:format><dc:type
           rdf:resource="http://purl.org/dc/dcmitype/StillImage" /><dc:title></dc:title></cc:Work></rdf:RDF></metadata><sodipodi:namedview
     inkscape:current-layer="Layer_x0020_1"
     inkscape:window-maximized="0"
     inkscape:window-y="23"
     inkscape:window-x="0"
     inkscape:cy="52.197138"
     inkscape:cx="30.755167"
     inkscape:zoom="4.9140625"
     showgrid="false"
     id="namedview842"
     inkscape:window-height="764"
     inkscape:window-width="1270"
     inkscape:pageshadow="2"
     inkscape:pageopacity="0"
     guidetolerance="10"
     gridtolerance="10"
     objecttolerance="10"
     borderopacity="1"
     bordercolor="#666666"
     pagecolor="#ffffff" /><defs
     id="defs835"><style
       id="style833"
       type="text/css">
   <![CDATA[
    .fil0 {fill:#E6C131}
   ]]>
  </style></defs><g
     id="Layer_x0020_1"><path
       style="fill:#00b0f1;fill-opacity:1"
       id="path837"
       d="M1603 0l10912 0c882,0 1603,722 1603,1603l0 16873c0,882 -721,1604 -1603,1604l-10912 0c-881,0 -1603,-722 -1603,-1604l0 -16873c0,-881 722,-1603 1603,-1603zm1514 10612c746,0 1351,-605 1351,-1351 0,-747 -605,-1352 -1351,-1352 -747,0 -1352,605 -1352,1352 0,746 605,1351 1352,1351zm0 7452c746,0 1351,-605 1351,-1352 0,-747 -605,-1352 -1351,-1352 -747,0 -1352,605 -1352,1352 0,747 605,1352 1352,1352zm7885 0c746,0 1352,-605 1352,-1352 0,-747 -606,-1352 -1352,-1352 -747,0 -1352,605 -1352,1352 0,747 605,1352 1352,1352zm-3943 0c747,0 1352,-605 1352,-1352 0,-747 -605,-1352 -1352,-1352 -746,0 -1351,605 -1351,1352 0,747 605,1352 1351,1352zm-3942 -3726c746,0 1351,-605 1351,-1352 0,-746 -605,-1351 -1351,-1351 -747,0 -1352,605 -1352,1351 0,747 605,1352 1352,1352zm7885 0c746,0 1352,-605 1352,-1352 0,-746 -606,-1351 -1352,-1351 -747,0 -1352,605 -1352,1351 0,747 605,1352 1352,1352zm-3943 0c747,0 1352,-605 1352,-1352 0,-746 -605,-1351 -1352,-1351 -746,0 -1351,605 -1351,1351 0,747 605,1352 1351,1352zm3943 -3726c746,0 1352,-605 1352,-1351 0,-747 -606,-1352 -1352,-1352 -747,0 -1352,605 -1352,1352 0,746 605,1351 1352,1351zm-3943 0c747,0 1352,-605 1352,-1351 0,-747 -605,-1352 -1352,-1352 -746,0 -1351,605 -1351,1352 0,746 605,1351 1351,1351zm-5294 -8771l10589 0 0 4000 -10589 0 0 -4000z"
       class="fil0" /></g></svg>
